%TF.GenerationSoftware,KiCad,Pcbnew,5.1.9+dfsg1-1*%
%TF.CreationDate,2022-02-19T14:54:11+00:00*%
%TF.ProjectId,arduboy_flex_fx,61726475-626f-4795-9f66-6c65785f6678,rev?*%
%TF.SameCoordinates,Original*%
%TF.FileFunction,Legend,Top*%
%TF.FilePolarity,Positive*%
%FSLAX46Y46*%
G04 Gerber Fmt 4.6, Leading zero omitted, Abs format (unit mm)*
G04 Created by KiCad (PCBNEW 5.1.9+dfsg1-1) date 2022-02-19 14:54:11*
%MOMM*%
%LPD*%
G01*
G04 APERTURE LIST*
%ADD10C,0.150000*%
G04 APERTURE END LIST*
D10*
X158040131Y-83077346D02*
X158516321Y-83077346D01*
X157944893Y-83363060D02*
X158278226Y-82363060D01*
X158611560Y-83363060D01*
X158944893Y-83363060D02*
X158944893Y-82696394D01*
X158944893Y-82886870D02*
X158992512Y-82791632D01*
X159040131Y-82744013D01*
X159135369Y-82696394D01*
X159230607Y-82696394D01*
X159992512Y-83363060D02*
X159992512Y-82363060D01*
X159992512Y-83315441D02*
X159897274Y-83363060D01*
X159706798Y-83363060D01*
X159611560Y-83315441D01*
X159563940Y-83267822D01*
X159516321Y-83172584D01*
X159516321Y-82886870D01*
X159563940Y-82791632D01*
X159611560Y-82744013D01*
X159706798Y-82696394D01*
X159897274Y-82696394D01*
X159992512Y-82744013D01*
X160897274Y-82696394D02*
X160897274Y-83363060D01*
X160468702Y-82696394D02*
X160468702Y-83220203D01*
X160516321Y-83315441D01*
X160611560Y-83363060D01*
X160754417Y-83363060D01*
X160849655Y-83315441D01*
X160897274Y-83267822D01*
X161373464Y-83363060D02*
X161373464Y-82363060D01*
X161373464Y-82744013D02*
X161468702Y-82696394D01*
X161659179Y-82696394D01*
X161754417Y-82744013D01*
X161802036Y-82791632D01*
X161849655Y-82886870D01*
X161849655Y-83172584D01*
X161802036Y-83267822D01*
X161754417Y-83315441D01*
X161659179Y-83363060D01*
X161468702Y-83363060D01*
X161373464Y-83315441D01*
X162421083Y-83363060D02*
X162325845Y-83315441D01*
X162278226Y-83267822D01*
X162230607Y-83172584D01*
X162230607Y-82886870D01*
X162278226Y-82791632D01*
X162325845Y-82744013D01*
X162421083Y-82696394D01*
X162563940Y-82696394D01*
X162659179Y-82744013D01*
X162706798Y-82791632D01*
X162754417Y-82886870D01*
X162754417Y-83172584D01*
X162706798Y-83267822D01*
X162659179Y-83315441D01*
X162563940Y-83363060D01*
X162421083Y-83363060D01*
X163087750Y-82696394D02*
X163325845Y-83363060D01*
X163563940Y-82696394D02*
X163325845Y-83363060D01*
X163230607Y-83601156D01*
X163182988Y-83648775D01*
X163087750Y-83696394D01*
X164563940Y-82696394D02*
X164944893Y-82696394D01*
X164706798Y-83363060D02*
X164706798Y-82505918D01*
X164754417Y-82410680D01*
X164849655Y-82363060D01*
X164944893Y-82363060D01*
X165182988Y-83363060D02*
X165706798Y-82696394D01*
X165182988Y-82696394D02*
X165706798Y-83363060D01*
X166706798Y-82696394D02*
X167087750Y-82696394D01*
X166849655Y-83363060D02*
X166849655Y-82505918D01*
X166897274Y-82410680D01*
X166992512Y-82363060D01*
X167087750Y-82363060D01*
X167563940Y-83363060D02*
X167468702Y-83315441D01*
X167421083Y-83220203D01*
X167421083Y-82363060D01*
X168325845Y-83315441D02*
X168230607Y-83363060D01*
X168040131Y-83363060D01*
X167944893Y-83315441D01*
X167897274Y-83220203D01*
X167897274Y-82839251D01*
X167944893Y-82744013D01*
X168040131Y-82696394D01*
X168230607Y-82696394D01*
X168325845Y-82744013D01*
X168373464Y-82839251D01*
X168373464Y-82934489D01*
X167897274Y-83029727D01*
X168706798Y-83363060D02*
X169230607Y-82696394D01*
X168706798Y-82696394D02*
X169230607Y-83363060D01*
X134889740Y-83250731D02*
X134556407Y-83250731D01*
X134556407Y-83774540D02*
X134556407Y-82774540D01*
X135032598Y-82774540D01*
X135842121Y-83774540D02*
X135842121Y-83250731D01*
X135794502Y-83155493D01*
X135699264Y-83107874D01*
X135508788Y-83107874D01*
X135413550Y-83155493D01*
X135842121Y-83726921D02*
X135746883Y-83774540D01*
X135508788Y-83774540D01*
X135413550Y-83726921D01*
X135365931Y-83631683D01*
X135365931Y-83536445D01*
X135413550Y-83441207D01*
X135508788Y-83393588D01*
X135746883Y-83393588D01*
X135842121Y-83345969D01*
X136746883Y-83726921D02*
X136651645Y-83774540D01*
X136461169Y-83774540D01*
X136365931Y-83726921D01*
X136318312Y-83679302D01*
X136270693Y-83584064D01*
X136270693Y-83298350D01*
X136318312Y-83203112D01*
X136365931Y-83155493D01*
X136461169Y-83107874D01*
X136651645Y-83107874D01*
X136746883Y-83155493D01*
X137556407Y-83726921D02*
X137461169Y-83774540D01*
X137270693Y-83774540D01*
X137175455Y-83726921D01*
X137127836Y-83631683D01*
X137127836Y-83250731D01*
X137175455Y-83155493D01*
X137270693Y-83107874D01*
X137461169Y-83107874D01*
X137556407Y-83155493D01*
X137604026Y-83250731D01*
X137604026Y-83345969D01*
X137127836Y-83441207D01*
X138175455Y-83774540D02*
X138080217Y-83726921D01*
X138032598Y-83631683D01*
X138032598Y-82774540D01*
X138937360Y-83726921D02*
X138842121Y-83774540D01*
X138651645Y-83774540D01*
X138556407Y-83726921D01*
X138508788Y-83631683D01*
X138508788Y-83250731D01*
X138556407Y-83155493D01*
X138651645Y-83107874D01*
X138842121Y-83107874D01*
X138937360Y-83155493D01*
X138984979Y-83250731D01*
X138984979Y-83345969D01*
X138508788Y-83441207D01*
X139365931Y-83726921D02*
X139461169Y-83774540D01*
X139651645Y-83774540D01*
X139746883Y-83726921D01*
X139794502Y-83631683D01*
X139794502Y-83584064D01*
X139746883Y-83488826D01*
X139651645Y-83441207D01*
X139508788Y-83441207D01*
X139413550Y-83393588D01*
X139365931Y-83298350D01*
X139365931Y-83250731D01*
X139413550Y-83155493D01*
X139508788Y-83107874D01*
X139651645Y-83107874D01*
X139746883Y-83155493D01*
X140175455Y-83726921D02*
X140270693Y-83774540D01*
X140461169Y-83774540D01*
X140556407Y-83726921D01*
X140604026Y-83631683D01*
X140604026Y-83584064D01*
X140556407Y-83488826D01*
X140461169Y-83441207D01*
X140318312Y-83441207D01*
X140223074Y-83393588D01*
X140175455Y-83298350D01*
X140175455Y-83250731D01*
X140223074Y-83155493D01*
X140318312Y-83107874D01*
X140461169Y-83107874D01*
X140556407Y-83155493D01*
X140889740Y-83107874D02*
X141270693Y-83107874D01*
X141032598Y-82774540D02*
X141032598Y-83631683D01*
X141080217Y-83726921D01*
X141175455Y-83774540D01*
X141270693Y-83774540D01*
X141984979Y-83726921D02*
X141889740Y-83774540D01*
X141699264Y-83774540D01*
X141604026Y-83726921D01*
X141556407Y-83631683D01*
X141556407Y-83250731D01*
X141604026Y-83155493D01*
X141699264Y-83107874D01*
X141889740Y-83107874D01*
X141984979Y-83155493D01*
X142032598Y-83250731D01*
X142032598Y-83345969D01*
X141556407Y-83441207D01*
X142889740Y-83726921D02*
X142794502Y-83774540D01*
X142604026Y-83774540D01*
X142508788Y-83726921D01*
X142461169Y-83679302D01*
X142413550Y-83584064D01*
X142413550Y-83298350D01*
X142461169Y-83203112D01*
X142508788Y-83155493D01*
X142604026Y-83107874D01*
X142794502Y-83107874D01*
X142889740Y-83155493D01*
X143318312Y-83774540D02*
X143318312Y-82774540D01*
X143746883Y-83774540D02*
X143746883Y-83250731D01*
X143699264Y-83155493D01*
X143604026Y-83107874D01*
X143461169Y-83107874D01*
X143365931Y-83155493D01*
X143318312Y-83203112D01*
X144937360Y-82869779D02*
X144984979Y-82822160D01*
X145080217Y-82774540D01*
X145318312Y-82774540D01*
X145413550Y-82822160D01*
X145461169Y-82869779D01*
X145508788Y-82965017D01*
X145508788Y-83060255D01*
X145461169Y-83203112D01*
X144889740Y-83774540D01*
X145508788Y-83774540D01*
X146127836Y-82774540D02*
X146223074Y-82774540D01*
X146318312Y-82822160D01*
X146365931Y-82869779D01*
X146413550Y-82965017D01*
X146461169Y-83155493D01*
X146461169Y-83393588D01*
X146413550Y-83584064D01*
X146365931Y-83679302D01*
X146318312Y-83726921D01*
X146223074Y-83774540D01*
X146127836Y-83774540D01*
X146032598Y-83726921D01*
X145984979Y-83679302D01*
X145937360Y-83584064D01*
X145889740Y-83393588D01*
X145889740Y-83155493D01*
X145937360Y-82965017D01*
X145984979Y-82869779D01*
X146032598Y-82822160D01*
X146127836Y-82774540D01*
X146842121Y-82869779D02*
X146889740Y-82822160D01*
X146984979Y-82774540D01*
X147223074Y-82774540D01*
X147318312Y-82822160D01*
X147365931Y-82869779D01*
X147413550Y-82965017D01*
X147413550Y-83060255D01*
X147365931Y-83203112D01*
X146794502Y-83774540D01*
X147413550Y-83774540D01*
X147794502Y-82869779D02*
X147842121Y-82822160D01*
X147937360Y-82774540D01*
X148175455Y-82774540D01*
X148270693Y-82822160D01*
X148318312Y-82869779D01*
X148365931Y-82965017D01*
X148365931Y-83060255D01*
X148318312Y-83203112D01*
X147746883Y-83774540D01*
X148365931Y-83774540D01*
%TO.C,U2*%
X157962600Y-90962480D02*
X157962600Y-84957920D01*
X150449280Y-90962480D02*
X150449280Y-84957920D01*
X150449280Y-84952840D02*
X157962600Y-84952840D01*
X150449280Y-90977720D02*
X157962600Y-90977720D01*
X158250260Y-83694020D02*
X158345499Y-83694020D01*
X158440737Y-83741640D01*
X158488356Y-83789259D01*
X158535975Y-83884497D01*
X158583594Y-84074973D01*
X158583594Y-84313068D01*
X158535975Y-84503544D01*
X158488356Y-84598782D01*
X158440737Y-84646401D01*
X158345499Y-84694020D01*
X158250260Y-84694020D01*
X158155022Y-84646401D01*
X158107403Y-84598782D01*
X158059784Y-84503544D01*
X158012165Y-84313068D01*
X158012165Y-84074973D01*
X158059784Y-83884497D01*
X158107403Y-83789259D01*
X158155022Y-83741640D01*
X158250260Y-83694020D01*
%TD*%
M02*
