%TF.GenerationSoftware,KiCad,Pcbnew,5.1.9+dfsg1-1*%
%TF.CreationDate,2022-02-19T14:54:11+00:00*%
%TF.ProjectId,arduboy_flex_fx,61726475-626f-4795-9f66-6c65785f6678,rev?*%
%TF.SameCoordinates,Original*%
%TF.FileFunction,Legend,Bot*%
%TF.FilePolarity,Positive*%
%FSLAX46Y46*%
G04 Gerber Fmt 4.6, Leading zero omitted, Abs format (unit mm)*
G04 Created by KiCad (PCBNEW 5.1.9+dfsg1-1) date 2022-02-19 14:54:11*
%MOMM*%
%LPD*%
G01*
G04 APERTURE LIST*
%ADD10C,0.150000*%
G04 APERTURE END LIST*
D10*
X147934179Y-83205011D02*
X148267512Y-83205011D01*
X148267512Y-83728820D02*
X148267512Y-82728820D01*
X147791321Y-82728820D01*
X146981798Y-83728820D02*
X146981798Y-83205011D01*
X147029417Y-83109773D01*
X147124655Y-83062154D01*
X147315131Y-83062154D01*
X147410369Y-83109773D01*
X146981798Y-83681201D02*
X147077036Y-83728820D01*
X147315131Y-83728820D01*
X147410369Y-83681201D01*
X147457988Y-83585963D01*
X147457988Y-83490725D01*
X147410369Y-83395487D01*
X147315131Y-83347868D01*
X147077036Y-83347868D01*
X146981798Y-83300249D01*
X146077036Y-83681201D02*
X146172274Y-83728820D01*
X146362750Y-83728820D01*
X146457988Y-83681201D01*
X146505607Y-83633582D01*
X146553226Y-83538344D01*
X146553226Y-83252630D01*
X146505607Y-83157392D01*
X146457988Y-83109773D01*
X146362750Y-83062154D01*
X146172274Y-83062154D01*
X146077036Y-83109773D01*
X145267512Y-83681201D02*
X145362750Y-83728820D01*
X145553226Y-83728820D01*
X145648464Y-83681201D01*
X145696083Y-83585963D01*
X145696083Y-83205011D01*
X145648464Y-83109773D01*
X145553226Y-83062154D01*
X145362750Y-83062154D01*
X145267512Y-83109773D01*
X145219893Y-83205011D01*
X145219893Y-83300249D01*
X145696083Y-83395487D01*
X144648464Y-83728820D02*
X144743702Y-83681201D01*
X144791321Y-83585963D01*
X144791321Y-82728820D01*
X143886560Y-83681201D02*
X143981798Y-83728820D01*
X144172274Y-83728820D01*
X144267512Y-83681201D01*
X144315131Y-83585963D01*
X144315131Y-83205011D01*
X144267512Y-83109773D01*
X144172274Y-83062154D01*
X143981798Y-83062154D01*
X143886560Y-83109773D01*
X143838940Y-83205011D01*
X143838940Y-83300249D01*
X144315131Y-83395487D01*
X143457988Y-83681201D02*
X143362750Y-83728820D01*
X143172274Y-83728820D01*
X143077036Y-83681201D01*
X143029417Y-83585963D01*
X143029417Y-83538344D01*
X143077036Y-83443106D01*
X143172274Y-83395487D01*
X143315131Y-83395487D01*
X143410369Y-83347868D01*
X143457988Y-83252630D01*
X143457988Y-83205011D01*
X143410369Y-83109773D01*
X143315131Y-83062154D01*
X143172274Y-83062154D01*
X143077036Y-83109773D01*
X142648464Y-83681201D02*
X142553226Y-83728820D01*
X142362750Y-83728820D01*
X142267512Y-83681201D01*
X142219893Y-83585963D01*
X142219893Y-83538344D01*
X142267512Y-83443106D01*
X142362750Y-83395487D01*
X142505607Y-83395487D01*
X142600845Y-83347868D01*
X142648464Y-83252630D01*
X142648464Y-83205011D01*
X142600845Y-83109773D01*
X142505607Y-83062154D01*
X142362750Y-83062154D01*
X142267512Y-83109773D01*
X141934179Y-83062154D02*
X141553226Y-83062154D01*
X141791321Y-82728820D02*
X141791321Y-83585963D01*
X141743702Y-83681201D01*
X141648464Y-83728820D01*
X141553226Y-83728820D01*
X140838940Y-83681201D02*
X140934179Y-83728820D01*
X141124655Y-83728820D01*
X141219893Y-83681201D01*
X141267512Y-83585963D01*
X141267512Y-83205011D01*
X141219893Y-83109773D01*
X141124655Y-83062154D01*
X140934179Y-83062154D01*
X140838940Y-83109773D01*
X140791321Y-83205011D01*
X140791321Y-83300249D01*
X141267512Y-83395487D01*
X139934179Y-83681201D02*
X140029417Y-83728820D01*
X140219893Y-83728820D01*
X140315131Y-83681201D01*
X140362750Y-83633582D01*
X140410369Y-83538344D01*
X140410369Y-83252630D01*
X140362750Y-83157392D01*
X140315131Y-83109773D01*
X140219893Y-83062154D01*
X140029417Y-83062154D01*
X139934179Y-83109773D01*
X139505607Y-83728820D02*
X139505607Y-82728820D01*
X139077036Y-83728820D02*
X139077036Y-83205011D01*
X139124655Y-83109773D01*
X139219893Y-83062154D01*
X139362750Y-83062154D01*
X139457988Y-83109773D01*
X139505607Y-83157392D01*
X137886560Y-82824059D02*
X137838940Y-82776440D01*
X137743702Y-82728820D01*
X137505607Y-82728820D01*
X137410369Y-82776440D01*
X137362750Y-82824059D01*
X137315131Y-82919297D01*
X137315131Y-83014535D01*
X137362750Y-83157392D01*
X137934179Y-83728820D01*
X137315131Y-83728820D01*
X136696083Y-82728820D02*
X136600845Y-82728820D01*
X136505607Y-82776440D01*
X136457988Y-82824059D01*
X136410369Y-82919297D01*
X136362750Y-83109773D01*
X136362750Y-83347868D01*
X136410369Y-83538344D01*
X136457988Y-83633582D01*
X136505607Y-83681201D01*
X136600845Y-83728820D01*
X136696083Y-83728820D01*
X136791321Y-83681201D01*
X136838940Y-83633582D01*
X136886560Y-83538344D01*
X136934179Y-83347868D01*
X136934179Y-83109773D01*
X136886560Y-82919297D01*
X136838940Y-82824059D01*
X136791321Y-82776440D01*
X136696083Y-82728820D01*
X135981798Y-82824059D02*
X135934179Y-82776440D01*
X135838940Y-82728820D01*
X135600845Y-82728820D01*
X135505607Y-82776440D01*
X135457988Y-82824059D01*
X135410369Y-82919297D01*
X135410369Y-83014535D01*
X135457988Y-83157392D01*
X136029417Y-83728820D01*
X135410369Y-83728820D01*
X135029417Y-82824059D02*
X134981798Y-82776440D01*
X134886560Y-82728820D01*
X134648464Y-82728820D01*
X134553226Y-82776440D01*
X134505607Y-82824059D01*
X134457988Y-82919297D01*
X134457988Y-83014535D01*
X134505607Y-83157392D01*
X135077036Y-83728820D01*
X134457988Y-83728820D01*
X169208388Y-83168786D02*
X168732198Y-83168786D01*
X169303626Y-83454500D02*
X168970293Y-82454500D01*
X168636960Y-83454500D01*
X168303626Y-83454500D02*
X168303626Y-82787834D01*
X168303626Y-82978310D02*
X168256007Y-82883072D01*
X168208388Y-82835453D01*
X168113150Y-82787834D01*
X168017912Y-82787834D01*
X167256007Y-83454500D02*
X167256007Y-82454500D01*
X167256007Y-83406881D02*
X167351245Y-83454500D01*
X167541721Y-83454500D01*
X167636960Y-83406881D01*
X167684579Y-83359262D01*
X167732198Y-83264024D01*
X167732198Y-82978310D01*
X167684579Y-82883072D01*
X167636960Y-82835453D01*
X167541721Y-82787834D01*
X167351245Y-82787834D01*
X167256007Y-82835453D01*
X166351245Y-82787834D02*
X166351245Y-83454500D01*
X166779817Y-82787834D02*
X166779817Y-83311643D01*
X166732198Y-83406881D01*
X166636960Y-83454500D01*
X166494102Y-83454500D01*
X166398864Y-83406881D01*
X166351245Y-83359262D01*
X165875055Y-83454500D02*
X165875055Y-82454500D01*
X165875055Y-82835453D02*
X165779817Y-82787834D01*
X165589340Y-82787834D01*
X165494102Y-82835453D01*
X165446483Y-82883072D01*
X165398864Y-82978310D01*
X165398864Y-83264024D01*
X165446483Y-83359262D01*
X165494102Y-83406881D01*
X165589340Y-83454500D01*
X165779817Y-83454500D01*
X165875055Y-83406881D01*
X164827436Y-83454500D02*
X164922674Y-83406881D01*
X164970293Y-83359262D01*
X165017912Y-83264024D01*
X165017912Y-82978310D01*
X164970293Y-82883072D01*
X164922674Y-82835453D01*
X164827436Y-82787834D01*
X164684579Y-82787834D01*
X164589340Y-82835453D01*
X164541721Y-82883072D01*
X164494102Y-82978310D01*
X164494102Y-83264024D01*
X164541721Y-83359262D01*
X164589340Y-83406881D01*
X164684579Y-83454500D01*
X164827436Y-83454500D01*
X164160769Y-82787834D02*
X163922674Y-83454500D01*
X163684579Y-82787834D02*
X163922674Y-83454500D01*
X164017912Y-83692596D01*
X164065531Y-83740215D01*
X164160769Y-83787834D01*
X162684579Y-82787834D02*
X162303626Y-82787834D01*
X162541721Y-83454500D02*
X162541721Y-82597358D01*
X162494102Y-82502120D01*
X162398864Y-82454500D01*
X162303626Y-82454500D01*
X162065531Y-83454500D02*
X161541721Y-82787834D01*
X162065531Y-82787834D02*
X161541721Y-83454500D01*
X160541721Y-82787834D02*
X160160769Y-82787834D01*
X160398864Y-83454500D02*
X160398864Y-82597358D01*
X160351245Y-82502120D01*
X160256007Y-82454500D01*
X160160769Y-82454500D01*
X159684579Y-83454500D02*
X159779817Y-83406881D01*
X159827436Y-83311643D01*
X159827436Y-82454500D01*
X158922674Y-83406881D02*
X159017912Y-83454500D01*
X159208388Y-83454500D01*
X159303626Y-83406881D01*
X159351245Y-83311643D01*
X159351245Y-82930691D01*
X159303626Y-82835453D01*
X159208388Y-82787834D01*
X159017912Y-82787834D01*
X158922674Y-82835453D01*
X158875055Y-82930691D01*
X158875055Y-83025929D01*
X159351245Y-83121167D01*
X158541721Y-83454500D02*
X158017912Y-82787834D01*
X158541721Y-82787834D02*
X158017912Y-83454500D01*
%TO.C,U2*%
X158345499Y-83694020D02*
X158250260Y-83694020D01*
X158155022Y-83741640D01*
X158107403Y-83789259D01*
X158059784Y-83884497D01*
X158012165Y-84074973D01*
X158012165Y-84313068D01*
X158059784Y-84503544D01*
X158107403Y-84598782D01*
X158155022Y-84646401D01*
X158250260Y-84694020D01*
X158345499Y-84694020D01*
X158440737Y-84646401D01*
X158488356Y-84598782D01*
X158535975Y-84503544D01*
X158583594Y-84313068D01*
X158583594Y-84074973D01*
X158535975Y-83884497D01*
X158488356Y-83789259D01*
X158440737Y-83741640D01*
X158345499Y-83694020D01*
%TD*%
M02*
