%TF.GenerationSoftware,KiCad,Pcbnew,5.1.9+dfsg1-1*%
%TF.CreationDate,2022-02-19T14:54:11+00:00*%
%TF.ProjectId,arduboy_flex_fx,61726475-626f-4795-9f66-6c65785f6678,rev?*%
%TF.SameCoordinates,Original*%
%TF.FileFunction,Copper,L1,Top*%
%TF.FilePolarity,Positive*%
%FSLAX46Y46*%
G04 Gerber Fmt 4.6, Leading zero omitted, Abs format (unit mm)*
G04 Created by KiCad (PCBNEW 5.1.9+dfsg1-1) date 2022-02-19 14:54:11*
%MOMM*%
%LPD*%
G01*
G04 APERTURE LIST*
%TA.AperFunction,SMDPad,CuDef*%
%ADD10R,1.700000X0.650000*%
%TD*%
%TA.AperFunction,ComponentPad*%
%ADD11C,1.800000*%
%TD*%
%TA.AperFunction,ViaPad*%
%ADD12C,0.800000*%
%TD*%
%TA.AperFunction,Conductor*%
%ADD13C,0.250000*%
%TD*%
G04 APERTURE END LIST*
D10*
%TO.P,U2,7*%
%TO.N,Net-(U1-Pad1)*%
X149504400Y-87330280D03*
%TO.P,U2,6*%
%TO.N,Net-(U1-Pad4)*%
X149499320Y-88600280D03*
%TO.P,U2,5*%
%TO.N,Net-(U1-Pad5)*%
X149499320Y-89870280D03*
%TO.P,U2,4*%
%TO.N,Net-(U1-Pad2)*%
X158902400Y-89870280D03*
%TO.P,U2,3*%
%TO.N,Net-(U1-Pad1)*%
X158902400Y-88600280D03*
%TO.P,U2,2*%
%TO.N,Net-(U1-Pad6)*%
X158902400Y-87330280D03*
%TO.P,U2,1*%
%TO.N,Net-(U1-Pad7)*%
X158902400Y-86055200D03*
%TO.P,U2,8*%
%TO.N,Net-(U1-Pad1)*%
X149504400Y-86060280D03*
%TD*%
D11*
%TO.P,U1,3*%
%TO.N,Net-(U1-Pad3)*%
X171099480Y-83433920D03*
%TO.P,U1,2*%
%TO.N,Net-(U1-Pad2)*%
X173639480Y-83433920D03*
%TO.P,U1,1*%
%TO.N,Net-(U1-Pad1)*%
X176179480Y-83433920D03*
%TO.P,U1,4*%
%TO.N,Net-(U1-Pad4)*%
X145166080Y-85948520D03*
%TO.P,U1,5*%
%TO.N,Net-(U1-Pad5)*%
X142626080Y-85948520D03*
%TO.P,U1,6*%
%TO.N,Net-(U1-Pad6)*%
X140086080Y-85948520D03*
%TO.P,U1,7*%
%TO.N,Net-(U1-Pad7)*%
X132186680Y-83433920D03*
%TD*%
D12*
%TO.N,Net-(U1-Pad1)*%
X163581080Y-84963000D03*
%TO.N,Net-(U1-Pad6)*%
X162031680Y-85415120D03*
%TO.N,Net-(U1-Pad7)*%
X149275800Y-83972400D03*
X158887160Y-84952840D03*
%TD*%
D13*
%TO.N,Net-(U1-Pad1)*%
X149504400Y-87330280D02*
X149504400Y-86060280D01*
X159943800Y-88600280D02*
X158902400Y-88600280D01*
X163581080Y-84963000D02*
X159943800Y-88600280D01*
X163581080Y-84963000D02*
X161488120Y-82870040D01*
X149504400Y-85397652D02*
X149504400Y-86060280D01*
X152032012Y-82870040D02*
X149504400Y-85397652D01*
X161488120Y-82870040D02*
X152032012Y-82870040D01*
%TO.N,Net-(U1-Pad2)*%
X172783500Y-85051900D02*
X174401480Y-83433920D01*
X164818060Y-85051900D02*
X172783500Y-85051900D01*
X159999680Y-89870280D02*
X164818060Y-85051900D01*
X158902400Y-89870280D02*
X159999680Y-89870280D01*
%TO.N,Net-(U1-Pad4)*%
X147817840Y-88600280D02*
X149499320Y-88600280D01*
X145166080Y-85948520D02*
X147817840Y-88600280D01*
%TO.N,Net-(U1-Pad5)*%
X142626080Y-85948520D02*
X144556480Y-87878920D01*
X144556480Y-87878920D02*
X145958560Y-87878920D01*
X147949920Y-89870280D02*
X149499320Y-89870280D01*
X145958560Y-87878920D02*
X147949920Y-89870280D01*
%TO.N,Net-(U1-Pad6)*%
X160116520Y-87330280D02*
X158902400Y-87330280D01*
X162031680Y-85415120D02*
X160116520Y-87330280D01*
%TO.N,Net-(U1-Pad7)*%
X148737320Y-83433920D02*
X149275800Y-83972400D01*
X131678680Y-83433920D02*
X148737320Y-83433920D01*
X158887160Y-86039960D02*
X158902400Y-86055200D01*
X158887160Y-84952840D02*
X158887160Y-86039960D01*
%TD*%
M02*
